<svg t="1704946760278" class="icon" viewBox="0 0 1024 1024" version="1.1" xmlns="http://www.w3.org/2000/svg" p-id="18832" width="64" height="64"><path d="M893.1 127.9H719.4c-5.3 0-10.6 1.8-14.8 5.1l-53 91.5c-4.2 3.3-9.4 5.1-14.8 5.1H408c-5.9 0-11.6-2.2-16-6.1L355.7 134c-4.4-3.9-10.1-6.1-16-6.1H145.5c-34.5 0-62.5 28-62.5 62.5v567.3c0 34.5 28 62.5 62.5 62.5h140c16.6 0 32.5 6.6 44.2 18.3l68.6 68.7c11.8 11.7 27.6 18.3 44.2 18.3h162.4c16.6 0 32.5-6.6 44.2-18.2l76.7-76.7c11.8-11.7 27.6-18.3 44.2-18.3h123c34.5 0 62.5-28 62.5-62.5V190.4c0-34.5-27.9-62.5-62.4-62.5zM608.7 716.4c-28.4 19.9-65.1 29.9-110.2 29.9-39.2 0-73.4-7.4-102.5-22.2v-68.4c33.7 24.4 70.1 36.6 109 36.6 52.2 0 78.3-17.1 78.3-51.3 0-14.6-5.7-26.6-17.1-36.1-11.4-9.5-34.5-20.7-69.4-33.7-41.9-16.9-69.2-33.5-81.7-50.1-12.5-16.5-18.8-36.5-18.8-60 0-33.5 14.2-60.3 42.6-80.5s63.3-30.2 104.8-30.2c32.1 0 62 5.6 89.6 16.7v64.6c-28.3-18.2-60.3-27.3-96-27.3-21.4 0-38.9 4.7-52.3 14-13.4 9.3-20.2 21.7-20.2 36.9 0 15 4.8 26.8 14.5 35.2 9.7 8.4 31.2 19.3 64.4 32.5 42.2 15.7 70.6 32 85.4 48.9 14.8 16.9 22.2 37.7 22.2 62.5-0.1 34.8-14.3 62.1-42.6 82z" fill="#557FB6" p-id="18833"></path><path d="M543.6 523.2c-33.3-13.2-54.7-24-64.4-32.5-9.7-8.4-14.5-20.2-14.5-35.2 0-15.3 6.7-27.6 20.2-36.9 13.4-9.3 30.9-14 52.3-14 35.8 0 67.8 9.1 96 27.3v-64.6c-27.6-11.2-57.4-16.7-89.6-16.7-41.5 0-76.4 10.1-104.8 30.2s-42.6 47-42.6 80.5c0 23.5 6.3 43.5 18.8 60s39.8 33.2 81.7 50.1c34.9 13 58 24.2 69.4 33.7 11.4 9.5 17.1 21.5 17.1 36.1 0 34.2-26.1 51.3-78.3 51.3-39 0-75.3-12.2-109-36.6v68.4c29.2 14.8 63.3 22.2 102.5 22.2 45.1 0 81.9-10 110.2-29.9 28.4-19.9 42.6-47.2 42.6-81.9 0-24.8-7.4-45.7-22.2-62.5-14.8-17-43.3-33.3-85.4-49z" fill="#FFFFFF" p-id="18834"></path></svg>