<svg t="1703836368243" class="icon" viewBox="0 0 1024 1024" version="1.1" xmlns="http://www.w3.org/2000/svg" p-id="4279" width="64" height="64"><path d="M318.72 385.28c0 17.92 15.36 33.28 33.28 33.28s33.28-15.36 33.28-33.28-15.36-33.28-33.28-33.28-33.28 15.36-33.28 33.28zM469.76 384c0 17.92 15.36 33.28 33.28 33.28 17.92 0 33.28-15.36 33.28-33.28s-15.36-33.28-33.28-33.28c-19.2 0-33.28 15.36-33.28 33.28zM552.96 533.76c0 12.8 10.24 23.04 23.04 23.04s23.04-10.24 23.04-23.04-10.24-23.04-23.04-23.04-23.04 10.24-23.04 23.04zM670.72 536.32c0 12.8 10.24 23.04 23.04 23.04s23.04-10.24 23.04-23.04-10.24-23.04-23.04-23.04-23.04 10.24-23.04 23.04z" fill="#50B674" p-id="4280"></path><path d="M512 0C229.12 0 0 229.12 0 512s229.12 512 512 512 512-229.12 512-512S794.88 0 512 0z m-87.04 629.76c-26.88 0-48.64-5.12-75.52-11.52l-75.52 37.12 21.76-64c-53.76-37.12-85.76-85.76-85.76-144.64 0-102.4 97.28-183.04 215.04-183.04 104.96 0 198.4 64 216.32 151.04-6.4-1.28-14.08-1.28-20.48-1.28-102.4 0-183.04 76.8-183.04 170.24 0 15.36 2.56 30.72 6.4 44.8-6.4 1.28-12.8 1.28-19.2 1.28z m313.6 75.52l15.36 53.76-58.88-32c-21.76 5.12-42.24 11.52-64 11.52-102.4 0-183.04-70.4-183.04-154.88s80.64-154.88 183.04-154.88c97.28 0 183.04 70.4 183.04 154.88 0 46.08-30.72 89.6-75.52 121.6z" fill="#00CD1C" p-id="4281"></path></svg>